<svg width="264" height="68" viewBox="0 0 264 68" fill="none" xmlns="http://www.w3.org/2000/svg">
<path d="M1.81515 43.1924V32.2191H7.47115C8.82588 32.2191 9.86451 32.4731 10.587 32.9811C11.3096 33.4778 11.6708 34.2004 11.6708 35.1487C11.6708 35.7583 11.5297 36.2437 11.2475 36.605C10.9652 36.955 10.5701 37.2203 10.0621 37.4009C9.55405 37.5703 8.95007 37.6775 8.25012 37.7227L8.31786 37.6211C8.82588 37.6323 9.30568 37.6775 9.75726 37.7565C10.2088 37.8243 10.604 37.9484 10.9426 38.1291C11.2926 38.3097 11.5636 38.5637 11.7555 38.8911C11.9587 39.2072 12.0603 39.6193 12.0603 40.1273C12.0603 40.8047 11.891 41.3635 11.5523 41.8038C11.2136 42.2441 10.7394 42.5828 10.1298 42.8198C9.53147 43.0456 8.83717 43.1698 8.04691 43.1924H1.81515ZM3.76258 41.5328H7.77597C8.50978 41.5328 9.07425 41.4087 9.46938 41.1603C9.8758 40.9006 10.079 40.4999 10.079 39.958C10.079 39.5403 9.95482 39.2354 9.70646 39.0435C9.46938 38.8516 9.15328 38.7274 8.75815 38.671C8.36302 38.6145 7.95095 38.5863 7.52196 38.5863H3.76258V41.5328ZM3.76258 36.9606H7.35261C8.08643 36.9606 8.6509 36.8364 9.04603 36.5881C9.45244 36.3284 9.65565 35.9276 9.65565 35.3858C9.65565 34.8439 9.45244 34.46 9.04603 34.2342C8.6509 33.9972 8.13158 33.8786 7.48809 33.8786H3.76258V36.9606ZM30.986 38.5524V32.2191H32.9335V38.7048C32.9335 39.3935 32.8375 40.0031 32.6456 40.5337C32.4649 41.053 32.1996 41.4933 31.8497 41.8546C31.511 42.2158 31.1046 42.515 30.6304 42.7521C30.1676 42.9779 29.6595 43.1416 29.1063 43.2432C28.5532 43.3448 27.9661 43.3956 27.3452 43.3956C26.713 43.3956 26.109 43.3448 25.5332 43.2432C24.9688 43.1416 24.4495 42.9779 23.9753 42.7521C23.5124 42.515 23.1117 42.2158 22.773 41.8546C22.4343 41.4933 22.169 41.053 21.9771 40.5337C21.7965 40.0031 21.7061 39.3935 21.7061 38.7048V32.2191H23.6536V38.5524C23.6536 39.4104 23.8173 40.0652 24.1446 40.5168C24.472 40.9571 24.9123 41.2619 25.4655 41.4312C26.0187 41.5893 26.6453 41.6683 27.3452 41.6683C28.0226 41.6683 28.6322 41.5893 29.1741 41.4312C29.7273 41.2619 30.1676 40.9571 30.4949 40.5168C30.8223 40.0652 30.986 39.4104 30.986 38.5524ZM45.1487 38.5355V41.5159H52.9384V43.1924H43.2012V32.2191H52.9214V33.8955H45.1487V36.9268H51.5159V38.5355H45.1487ZM73.1389 41.1603L72.5293 41.3974V32.2191H74.4936V43.1924H72.5293L64.2485 34.302L64.8412 34.0649V43.1924H62.8938V32.2191H64.8412L73.1389 41.1603ZM90.7304 43.3956C89.4321 43.3956 88.2975 43.1642 87.3267 42.7013C86.3671 42.2384 85.622 41.5836 85.0914 40.7369C84.572 39.8902 84.3124 38.8798 84.3124 37.7057C84.3124 36.5316 84.572 35.5212 85.0914 34.6745C85.622 33.8165 86.3671 33.1617 87.3267 32.7102C88.2975 32.2473 89.4321 32.0159 90.7304 32.0159C92.0513 32.0159 93.1859 32.2473 94.1342 32.7102C95.0938 33.1617 95.8389 33.8165 96.3695 34.6745C96.9001 35.5212 97.1654 36.5316 97.1654 37.7057C97.1654 38.8798 96.9001 39.8902 96.3695 40.7369C95.8389 41.5836 95.0938 42.2384 94.1342 42.7013C93.1859 43.1642 92.0513 43.3956 90.7304 43.3956ZM90.7304 41.6683C91.5884 41.6683 92.3448 41.5272 92.9996 41.245C93.6657 40.9514 94.185 40.5111 94.5575 39.9241C94.9414 39.337 95.1333 38.5976 95.1333 37.7057C95.1333 36.8252 94.9414 36.0913 94.5575 35.5043C94.185 34.9172 93.6657 34.477 92.9996 34.1834C92.3448 33.8899 91.5884 33.7431 90.7304 33.7431C89.8837 33.7431 89.1217 33.8899 88.4443 34.1834C87.7782 34.477 87.2533 34.9172 86.8694 35.5043C86.4856 36.0913 86.2937 36.8252 86.2937 37.7057C86.2937 38.5976 86.4856 39.337 86.8694 39.9241C87.2533 40.5111 87.7782 40.9514 88.4443 41.245C89.1217 41.5272 89.8837 41.6683 90.7304 41.6683Z" fill="#E9E9E9"/>
<path d="M153.151 43.1924V32.2191H158.807C160.161 32.2191 161.2 32.4731 161.923 32.9811C162.645 33.4778 163.006 34.2004 163.006 35.1487C163.006 35.7583 162.865 36.2437 162.583 36.605C162.301 36.955 161.906 37.2203 161.398 37.4009C160.89 37.5703 160.286 37.6775 159.586 37.7227L159.653 37.6211C160.161 37.6323 160.641 37.6775 161.093 37.7565C161.544 37.8243 161.939 37.9484 162.278 38.1291C162.628 38.3097 162.899 38.5637 163.091 38.8911C163.294 39.2072 163.396 39.6193 163.396 40.1273C163.396 40.8047 163.226 41.3635 162.888 41.8038C162.549 42.2441 162.075 42.5828 161.465 42.8198C160.867 43.0456 160.173 43.1698 159.382 43.1924H153.151ZM155.098 41.5328H159.111C159.845 41.5328 160.41 41.4087 160.805 41.1603C161.211 40.9006 161.415 40.4999 161.415 39.958C161.415 39.5403 161.29 39.2354 161.042 39.0435C160.805 38.8516 160.489 38.7274 160.094 38.671C159.699 38.6145 159.286 38.5863 158.857 38.5863H155.098V41.5328ZM155.098 36.9606H158.688C159.422 36.9606 159.986 36.8364 160.382 36.5881C160.788 36.3284 160.991 35.9276 160.991 35.3858C160.991 34.8439 160.788 34.46 160.382 34.2342C159.986 33.9972 159.467 33.8786 158.824 33.8786H155.098V36.9606ZM174.989 38.5355V41.5159H182.779V43.1924H173.042V32.2191H182.762V33.8955H174.989V36.9268H181.356V38.5355H174.989ZM194.275 40.6353V38.9589H200.879V40.6353H194.275ZM191.718 43.1924L196.544 32.2191H198.644L203.521 43.1924H201.388L197.171 33.2859H198.018L193.818 43.1924H191.718ZM221.872 38.5524V32.2191H223.819V38.7048C223.819 39.3935 223.723 40.0031 223.532 40.5337C223.351 41.053 223.086 41.4933 222.736 41.8546C222.397 42.2158 221.991 42.515 221.516 42.7521C221.053 42.9779 220.545 43.1416 219.992 43.2432C219.439 43.3448 218.852 43.3956 218.231 43.3956C217.599 43.3956 216.995 43.3448 216.419 43.2432C215.855 43.1416 215.335 42.9779 214.861 42.7521C214.398 42.515 213.998 42.2158 213.659 41.8546C213.32 41.4933 213.055 41.053 212.863 40.5337C212.682 40.0031 212.592 39.3935 212.592 38.7048V32.2191H214.539V38.5524C214.539 39.4104 214.703 40.0652 215.031 40.5168C215.358 40.9571 215.798 41.2619 216.351 41.4312C216.905 41.5893 217.531 41.6683 218.231 41.6683C218.908 41.6683 219.518 41.5893 220.06 41.4312C220.613 41.2619 221.053 40.9571 221.381 40.5168C221.708 40.0652 221.872 39.4104 221.872 38.5524ZM233.071 32.2191H243.706V33.8955H233.071V32.2191ZM237.423 33.6923H239.371V43.1924H237.423V33.6923ZM263.143 32.2191L258.638 39.6362V43.1924H256.674V39.6362L252.17 32.2191H254.422L258.232 38.7048H257.148L260.891 32.2191H263.143Z" fill="#F1E4D9"/>
<path fill-rule="evenodd" clip-rule="evenodd" d="M136.748 10.3379C132.192 10.8057 133.477 14.5401 128.611 18.5481C125.574 21.0385 123.472 22.3212 121.136 24.1512C115.841 28.3146 112.842 33.0611 112.96 40.0645C114.205 28.7809 123.316 23.4892 127.053 20.7262C121.642 25.4726 119.15 29.4027 117.554 32.633C114.166 39.4796 114.011 44.5384 120.824 49.557C123.628 51.5811 127.521 54.0313 128.183 59.6731C126.508 56.7938 122.732 53.6037 119.617 52.7084C126.042 57.6505 129.039 61.4236 128.066 68C125.924 58.9739 115.335 56.2113 110.39 48.4674C98.8264 28.9751 120.707 25.4726 127.014 16.0964C120.318 22.7115 110.857 24.3453 106.341 34.1104C108.91 24.1512 112.725 21.1165 115.684 18.8982C120.863 15.1236 126.313 13.8781 128.804 6.79814C124.678 13.8408 120.746 14.1517 114.828 18.119C110.117 21.2719 105.6 26.1351 104.433 37.1451C99.4113 26.6396 105.134 11.933 112.648 5.35803C120.435 -1.45127 130.09 -2.81294 138.071 7.45863C148.506 13.606 152.244 27.5355 138.306 44.966C148.35 30.881 146.092 18.4701 140.174 13.4501C147.143 23.5662 142.744 33.0993 138.656 41.5424C136.125 46.7552 136.865 47.9227 139.084 53.2149C135.074 49.7124 136.163 46.4831 131.881 42.982C128.961 40.6471 125.34 39.2074 122.887 36.5616C121.563 35.0827 121.136 33.4882 122.887 29.5576C123.822 27.5742 124.834 27.2241 125.963 27.9626C127.014 28.7025 130.518 31.8146 130.986 29.1688C131.103 28.4289 130.947 28.0013 131.764 27.6517C132.309 27.4183 132.854 27.535 132.698 26.7563C132.62 26.3675 132.737 26.2121 133.204 26.1346C133.749 26.0179 133.711 25.8237 133.633 25.2005C133.399 23.6829 134.605 23.8776 135.346 23.6442C136.046 23.4108 136.046 22.867 135.852 22.2433C135.735 21.8937 135.657 21.5436 135.541 21.1939C135.19 19.9485 135.151 19.1311 135.307 18.2759L136.669 18.119L135.463 17.6527C136.514 15.0844 137.292 13.9183 136.748 10.3384L136.748 10.3379ZM139.902 19.1311C140.602 22.2433 140.329 25.5128 139.551 28.5088C138.189 33.6828 135.969 35.4333 134.918 41.7371C135.229 35.0832 137.254 32.9051 138.617 28.1572C139.356 25.5903 139.824 22.6336 139.902 19.1311ZM119.15 2.94557C109.573 7.41941 104.356 18.1965 104.2 28.5863C106.186 18.4314 109.417 9.71565 119.15 2.94557Z" fill="#CDA582"/>
</svg>
